Coordinates
version=1
nRows=17
nColumns=36
inDegrees=yes

Units are S.I. units (second, meters, Newtons, ...)
If the header above contains a line with 'inDegrees', this indicates whether rotational values are in degrees (yes) or radians (no).

endheader
time	pelvis_tilt	pelvis_list	pelvis_rotation	pelvis_tx	pelvis_ty	pelvis_tz	hip_flexion_r	hip_adduction_r	hip_rotation_r	knee_angle_r	knee_angle_r_beta	ankle_angle_r	subtalar_angle_r	mtp_angle_r	hip_flexion_l	hip_adduction_l	hip_rotation_l	knee_angle_l	knee_angle_l_beta	ankle_angle_l	subtalar_angle_l	mtp_angle_l	lumbar_extension	lumbar_bending	lumbar_rotation	arm_flex_r	arm_add_r	arm_rot_r	elbow_flex_r	pro_sup_r	arm_flex_l	arm_add_l	arm_rot_l	elbow_flex_l	pro_sup_l
      1.89166670	      4.20855313	     -0.95662376	      3.90472831	     -0.87908379	      1.32015915	     -0.08743797	     -1.37397226	     -0.17634504	    -13.72937981	     11.95340250	      0.20862623	      0.43115446	    -18.99468845	     -7.49999987	     -2.10222520	     -2.21896235	      7.25686011	     10.91572896	      0.19051541	      6.36853374	     -6.78849435	     -7.49999987	    -33.57651664	      1.09701848	      0.80107524	      6.45437967	     -5.09404441	      9.63535361	     26.84697576	     73.56371665	      3.71519423	     -9.83259563	     21.51273421	     28.13502990	     73.96793182
      1.89583330	      4.18570364	     -0.95914567	      3.89772366	     -0.87823899	      1.32593701	     -0.08722061	     -1.33736620	     -0.17591557	    -13.70498821	     12.00529336	      0.20953190	      0.43135285	    -18.93751815	     -7.49999987	     -2.06051942	     -2.21723863	      7.24513882	     10.97050308	      0.19147140	      6.36182166	     -6.77202901	     -7.49999987	    -33.55967725	      1.09479152	      0.79816196	      6.45086826	     -5.09397652	      9.63584437	     26.88431951	     73.55412718	      3.71520518	     -9.82954403	     21.51374473	     28.17211102	     73.95818980
      1.90000000	      4.12704665	     -0.91436242	      3.81977701	     -0.87912230	      1.32438582	     -0.08724652	     -1.32043793	     -0.19279202	    -13.58599220	     11.85297745	      0.20687348	      0.16054659	    -19.27658157	     -7.49999987	     -2.06892437	     -2.15016874	      7.23391214	     10.84812041	      0.18933542	      6.29683395	     -6.68341940	     -7.49999987	    -33.54342587	      0.98996107	      0.82488049	      6.45574999	     -5.06273068	      9.64681113	     26.84527170	     72.88290501	      3.73382158	     -9.80611022	     21.56091615	     28.27150739	     73.31785102
      1.90416670	      3.99892442	     -0.87554431	      3.80819654	     -0.87958212	      1.32434622	     -0.08699130	     -1.18890612	     -0.25222892	    -13.76503188	     11.82136908	      0.20632181	      0.53810247	    -18.74165270	     -7.49999987	     -1.92635936	     -2.08401265	      7.23695037	     10.82804994	      0.18898512	      6.37249361	     -6.58130207	     -7.49999987	    -33.33433915	      0.94651594	      0.86823789	      6.61777553	     -5.12419659	     10.11267340	     26.32064101	     74.62676409	      3.95069175	     -9.86328977	     22.32033437	     27.83591043	     75.32308258
      1.90833330	      4.02298532	     -0.85332766	      3.82727884	     -0.87702422	      1.32514340	     -0.08725671	     -1.32762548	     -0.25853945	    -13.83437925	     11.68614656	      0.20396173	      0.53632366	    -18.51644107	     -7.49999987	     -2.06385479	     -2.05622871	      7.37346093	     10.64937602	      0.18586667	      6.07314421	     -6.71083918	     -7.49999987	    -33.33284933	      0.95280297	      0.84737636	      6.51690362	     -5.15610192	     10.35536358	     26.37058391	     75.04422885	      3.89382559	     -9.93669999	     22.64524134	     28.03306458	     75.89395192
      1.91250000	      3.98410566	     -0.83610529	      3.77155177	     -0.87933188	      1.32450626	     -0.08603304	     -1.27698279	     -0.23466499	    -13.73617837	     11.62539740	      0.20290146	      0.42659199	    -18.74174254	     -7.49999987	     -2.06569059	     -2.04831533	      7.34650876	     10.53864916	      0.18393413	      6.09271356	     -6.56926750	     -7.49999987	    -33.39643881	      0.89543599	      0.88556862	      6.36591050	     -4.90292877	      8.30327357	     26.64297890	     79.65730153	      3.78064707	     -9.78586957	     20.70993523	     28.25178773	     80.65826930
      1.91666670	      4.01794442	     -0.84247200	      3.80717181	     -0.87974148	      1.32191295	     -0.08649910	     -1.37766626	     -0.18972737	    -13.82253711	     11.45781134	      0.19997653	      0.48461327	    -18.66255565	     -7.49999987	     -2.05532426	     -2.09230689	      7.29021647	     10.55930088	      0.18429457	      6.19116961	     -6.29334575	     -7.49999987	    -33.50674672	      0.91255702	      0.82747328	      6.29014799	     -4.85019916	      8.11805678	     26.99061926	     77.78223299	      3.70231072	     -9.79264279	     20.52096733	     28.59501485	     78.69576932
      1.92083330	      3.95883572	     -0.83195966	      3.81048329	     -0.87990573	      1.32249480	     -0.08641827	     -1.29649649	     -0.18119919	    -13.67842797	     11.42209573	      0.19935318	      0.51954594	    -18.85645977	     -7.49999987	     -1.95135911	     -2.09794330	      7.37632260	     10.57669361	      0.18459813	      6.16991789	     -6.38546643	     -7.49999987	    -33.46855550	      0.92209616	      0.80301293	      6.34293905	     -4.82223579	      8.11878077	     26.96085605	     76.79827235	      3.73049524	     -9.79509299	     20.54752672	     28.65231673	     77.68002755
      1.92500000	      3.96534813	     -0.83681647	      3.77785674	     -0.87933475	      1.32462457	     -0.08662157	     -1.31808454	     -0.17055548	    -13.64270761	     11.38471209	      0.19870071	      0.44053207	    -18.93491936	     -7.49999987	     -1.96565637	     -2.13683703	      7.29428219	     10.54740011	      0.18408686	      6.11204059	     -6.34371302	     -7.49999987	    -33.47768619	      0.94155582	      0.82642974	      6.36292241	     -4.80503828	      8.14064961	     26.93398346	     76.28135289	      3.76572957	     -9.77510593	     20.61704512	     28.68481976	     77.14419506
      1.92916670	      3.87821086	     -0.85714057	      3.79417143	     -0.88001355	      1.32122575	     -0.08656620	     -1.14758125	     -0.17332096	    -13.69934793	     11.52464977	      0.20114308	      0.50783266	    -18.96710750	     -7.49999987	     -1.78721233	     -2.17288491	      7.27236490	     10.69982096	      0.18674711	      6.17299183	     -6.46422557	     -7.49999987	    -33.36873050	      0.98695727	      0.79300500	      6.35107612	     -4.71519570	      7.31813552	     26.83610639	     80.05649733	      3.78088632	     -9.72981949	     20.06446501	     28.64740911	     80.86041464
      1.93333330	      3.91975072	     -0.87369141	      3.80807254	     -0.87962447	      1.32080012	     -0.08561255	     -1.14514216	     -0.15090733	    -13.66812238	     11.65641165	      0.20344276	      0.54093828	    -19.03642363	     -7.49999987	     -1.78193840	     -2.23125507	      7.24536834	     10.81183994	      0.18870221	      6.22999184	     -6.53857888	     -7.49999987	    -33.43428797	      1.00607100	      0.79456001	      6.27624410	     -4.69509815	      7.29336486	     27.00967799	     79.61419916	      3.77143175	     -9.75192591	     20.03491872	     28.78646649	     80.39267600
      1.93750000	      3.86480334	     -0.87622453	      3.87370654	     -0.87905716	      1.32292904	     -0.08545193	     -1.06253713	     -0.13873393	    -13.55585944	     11.78142530	      0.20562466	      0.66097648	    -18.95683260	     -7.49999987	     -1.70044087	     -2.26817376	      7.23379615	     10.89823665	      0.19021011	      6.23980100	     -6.63745069	     -7.49999987	    -33.34350821	      1.03208433	      0.80920887	      6.25050583	     -4.70054996	      7.46065366	     26.91530659	     79.89938371	      3.84355253	     -9.78820732	     20.32011644	     28.70163401	     80.69769861
      1.94166670	      3.96735017	     -0.89783651	      3.95380384	     -0.87914935	      1.32230815	     -0.08654636	     -1.15986173	     -0.13126296	    -13.68900761	     11.88007847	      0.20734648	      0.90398400	    -18.60171627	     -7.49999987	     -1.80767770	     -2.31516224	      7.22169306	     10.93267610	      0.19081119	      6.31380268	     -6.70814983	     -7.49999987	    -33.43848620	      1.12186171	      0.75301717	      6.20390156	     -4.69280009	      7.31511434	     27.06831802	     79.35417436	      3.81127154	     -9.76805592	     20.18925214	     28.85995758	     80.13671439
      1.94583330	      3.98094065	     -0.88442004	      3.97117372	     -0.87849442	      1.32380063	     -0.08622723	     -1.21456865	     -0.12159539	    -13.53197355	     11.84927360	      0.20680884	      0.93151001	    -18.48132513	     -7.49999987	     -1.86688133	     -2.30204724	      7.12983110	     10.86191174	      0.18957612	      6.33043426	     -6.67560006	     -7.49999987	    -33.48824587	      1.11229691	      0.78825156	      6.10966326	     -4.63501937	      7.23230065	     27.16609590	     78.06844811	      3.74017559	     -9.74149523	     20.06950008	     29.07045605	     78.82700656
      1.95000000	      3.91380114	     -0.90872645	      3.89452618	     -0.87885700	      1.32468323	     -0.08702088	     -1.06206126	     -0.13420815	    -13.33696096	     11.99991432	      0.20943801	      0.73104645	    -18.71304436	     -7.49999987	     -1.83430986	     -2.29139666	      7.16331342	     10.77041236	      0.18797916	      6.09017941	     -6.91383651	     -7.49999987	    -33.41038105	      1.08299225	      0.83179958	      6.28423296	     -4.68860628	      7.70641104	     26.70878654	     78.53123960	      3.88344752	     -9.69525254	     20.44072595	     28.77045086	     79.36216962
      1.95416670	      3.83759927	     -0.96442850	      3.87401344	     -0.87956089	      1.32248475	     -0.08672650	     -0.90250336	     -0.10203508	    -13.37565039	     12.08844725	      0.21098321	      0.56385159	    -18.87045636	     -7.49999987	     -1.69666646	     -2.31949312	      7.18949636	     10.79135987	      0.18834476	      6.08597881	     -6.92918290	     -7.49999987	    -33.35089139	      1.12011229	      0.81403520	      6.29792217	     -4.65785963	      7.98142819	     26.65488223	     77.72203796	      3.88992883	     -9.68111841	     20.57274323	     28.76180149	     78.63963083
      1.95833330	      3.86501003	     -0.97069262	      3.78877191	     -0.87962352	      1.32140052	     -0.08681775	     -0.83938469	     -0.12071176	    -13.26997419	     12.17821690	      0.21254998	      0.49118938	    -19.09256433	     -7.49999987	     -1.71785027	     -2.30052197	      7.14529143	     10.77626996	      0.18808139	      5.99164403	     -7.01675681	     -7.49999987	    -33.42198074	      1.10490740	      0.86672421	      6.30555824	     -4.73720224	      8.07834259	     26.70861914	     76.79761610	      3.87522656	     -9.63727191	     20.69157816	     28.87881369	     77.78965742
